<svg xmlns="http://www.w3.org/2000/svg" width="70.006" height="56" viewBox="0 0 70.006 56">
  <g id="hands-helping" transform="translate(-10.649 6.442)">
    <path id="Path_55" data-name="Path 55" d="M53.359,21.021H36.733v6.126a7.876,7.876,0,1,1-15.751,0v-13.3l-7.1,4.266a6.986,6.986,0,0,0-3.4,5.994V29.28L1.73,34.333a3.492,3.492,0,0,0-1.28,4.78L9.2,54.274a3.5,3.5,0,0,0,4.78,1.28l11.31-6.53H40.233a7.007,7.007,0,0,0,7-7h1.75a3.5,3.5,0,0,0,3.5-3.5v-7h.875A2.619,2.619,0,0,0,55.984,28.9v-5.25A2.619,2.619,0,0,0,53.359,21.021ZM69.515,16.93,60.765,1.769A3.5,3.5,0,0,0,55.984.49L44.674,7.02H33.5a7.053,7.053,0,0,0-3.708,1.061l-3.664,2.286a3.477,3.477,0,0,0-1.641,2.964V27.147a4.375,4.375,0,1,0,8.751,0V17.521H53.359a6.129,6.129,0,0,1,6.126,6.126v3.117l8.751-5.054A3.5,3.5,0,0,0,69.515,16.93Z" transform="translate(10.671 -6.464)" fill="#fafafa"/>
  </g>
</svg>
