<svg xmlns="http://www.w3.org/2000/svg" width="24" height="23.995" viewBox="0 0 24 23.995"><g transform="translate(-282.925 702.175)"><path d="M11.928,37.67a6.152,6.152,0,1,0,6.152,6.152A6.142,6.142,0,0,0,11.928,37.67Zm0,10.151a4,4,0,1,1,4-4,4.007,4.007,0,0,1-4,4Zm7.838-10.4a1.435,1.435,0,1,1-1.435-1.435A1.432,1.432,0,0,1,19.766,37.419Zm4.075,1.456A7.1,7.1,0,0,0,21.9,33.848a7.148,7.148,0,0,0-5.028-1.938c-1.981-.112-7.919-.112-9.9,0a7.137,7.137,0,0,0-5.028,1.933A7.124,7.124,0,0,0,.009,38.87c-.112,1.981-.112,7.919,0,9.9A7.1,7.1,0,0,0,1.948,53.8a7.157,7.157,0,0,0,5.028,1.938c1.981.112,7.919.112,9.9,0A7.1,7.1,0,0,0,21.9,53.8a7.148,7.148,0,0,0,1.938-5.028C23.953,46.789,23.953,40.856,23.841,38.875ZM21.281,50.9A4.049,4.049,0,0,1,19,53.176c-1.579.626-5.327.482-7.073.482s-5.5.139-7.073-.482A4.049,4.049,0,0,1,2.574,50.9c-.626-1.579-.482-5.327-.482-7.073s-.139-5.5.482-7.073a4.049,4.049,0,0,1,2.281-2.281c1.579-.626,5.327-.482,7.073-.482s5.5-.139,7.073.482a4.049,4.049,0,0,1,2.281,2.281c.626,1.579.482,5.327.482,7.073S21.908,49.321,21.281,50.9Z" transform="translate(283 -734)" fill="#fafafa"/></g></svg>