<svg xmlns="http://www.w3.org/2000/svg" viewBox="0 0 1595.7 1585.85"><defs><style>.cls-1{fill:#fafafa;}.cls-2,.cls-4{fill:none;stroke-miterlimit:10;}.cls-2{stroke:#0a1330;stroke-linecap:round;stroke-width:8.44px;}.cls-3{fill:#0a1330;}.cls-4{stroke:#fafafa;stroke-width:13px;}</style></defs><title>Rocket V2 Head + Hublot Inverted</title><g id="Layer_2" data-name="Layer 2"><g id="Layer_1-2" data-name="Layer 1"><g id="Rocket_V2_Head_Hublot_Inverted" data-name="Rocket V2 Head + Hublot Inverted"><ellipse id="Circle" class="cls-1" cx="797.85" cy="792.93" rx="797.85" ry="792.93"/><g id="Reflects"><path class="cls-2" d="M95.6,1030.06S11,760.34,112.39,523.28"/><path class="cls-2" d="M115.12,960.88s-47.61-196.44,18-382.5"/><path class="cls-2" d="M159.11,1023.65s-73.92-275.39,27-494.6"/><path class="cls-2" d="M182.17,942S130.74,738.54,207.61,578"/><path class="cls-2" d="M202,846.59s-12.77-81.44,5.38-162.32"/></g><g id="Reflects-2" data-name="Reflects"><path class="cls-2" d="M1477.61,495.42s110.36,260.23,32.49,506"/><path class="cls-2" d="M1464.89,566.16s66.46,190.89,19.19,382.44"/><path class="cls-2" d="M1415,508s100.3,266.91,21.12,494.89"/><path class="cls-2" d="M1400,591.49s70.93,197.47,10,364.68"/><path class="cls-2" d="M1389.57,688.34s20.62,79.82,10.41,162.07"/></g><g id="Reacts"><polyline id="React_3" data-name="React 3" class="cls-3" points="690.75 1085.99 734.36 1087.39 734.36 1244.92 690.75 1215.39"/><polyline id="React_1" data-name="React 1" class="cls-3" points="915.8 1085.99 872.2 1087.39 872.2 1244.92 915.8 1215.39"/><polyline id="React_2" data-name="React 2" class="cls-3" points="780.77 1085.99 824.38 1085.99 824.38 1306.11 802.57 1330.31 780.77 1305.28"/></g><path class="cls-3" d="M1042.39,911.81l-76-76c9-303.2-164.27-488.25-164.27-488.25S628.82,532.58,637.83,835.78l-76,76s-37.48,105.39-20.67,175.72L654.3,974.75q1.91,9.22,4,18.56h25.21l25.22,25.22h92.88l.44-25.22.45,25.22h92.88l25.22-25.22h25.21q2.14-9.33,4-18.56l113.17,112.78C1079.87,1017.2,1042.39,911.81,1042.39,911.81ZM802.68,843.53a69.5,69.5,0,1,1,69.5-69.5A69.5,69.5,0,0,1,802.68,843.53Z"/><path class="cls-4" d="M697.68,472s86,114,229,0"/></g></g></g></svg>