<svg xmlns="http://www.w3.org/2000/svg" width="20.484" height="20.484" viewBox="0 0 20.484 20.484">
  <g id="rewind-mini-fill" transform="translate(20.484 20.484) rotate(180)">
    <path id="Path_10" data-name="Path 10" d="M0,0H20.484V20.484H0Z" fill="none"/>
    <path id="Path_11" data-name="Path 11" d="M6.941,9.022a.427.427,0,0,1-.673.349L.18,5.073a.427.427,0,0,1,0-.7L6.268.078a.427.427,0,0,1,.673.349Zm.921-3.949a.427.427,0,0,1,0-.7L13.95.078a.427.427,0,0,1,.673.349V9.022a.427.427,0,0,1-.673.349l-6.088-4.3Z" transform="translate(2.448 5.518)" fill="#fafafa"/>
  </g>
</svg>
