<svg xmlns="http://www.w3.org/2000/svg" width="109.087" height="75" viewBox="0 0 109.087 75">
  <g id="planet" transform="translate(0.001 -80)">
    <path id="Path_58" data-name="Path 58" d="M87.37,285.465a2.045,2.045,0,0,0-3.2,2.109,44.994,44.994,0,0,0,57.3,33.016,2.045,2.045,0,0,0,.2-3.835,286.367,286.367,0,0,1-27.992-14.218,287.969,287.969,0,0,1-26.3-17.072Z" transform="translate(-69.115 -167.636)" fill="#fafafa"/>
    <path id="Path_59" data-name="Path 59" d="M104.982,134.9c-.893-1.181-1.941-2.42-3.132-3.709a3.384,3.384,0,0,0-5.659,1.085.312.312,0,0,1-.036.1,3.315,3.315,0,0,0,.671,3.4c4.845,5.289,5.629,8.147,5.429,8.75-.426.472-3.633,1.458-12.39-.747q-1.881-.474-4.116-1.155-1.44-.44-2.938-.95a37.4,37.4,0,0,0,4.163-5.765c.036-.061.075-.123.111-.186a36.9,36.9,0,0,0,4.96-18.489A37.55,37.55,0,0,0,22.109,98.561c-.034.061-.072.123-.109.184a37,37,0,0,0-2.947,6.457q-1.191-1.03-2.3-2.046c-1.148-1.058-2.167-2.037-3.072-2.962-6.3-6.4-7.05-9.649-6.852-10.25.426-.472,3.311-1.242,10.359.277A3.384,3.384,0,0,0,20.5,89.1L20.577,89a3.312,3.312,0,0,0,.6-3.2,3.345,3.345,0,0,0-2.444-2.175,50.905,50.905,0,0,0-5.067-.874C7.118,82,2.833,83.283.926,86.559a7.669,7.669,0,0,0-.58,6.051C1.491,96.853,5.569,102,11.341,107.4c1.839,1.72,3.848,3.463,5.991,5.213,1.56,1.269,3.2,2.551,4.879,3.825q1.685,1.269,3.441,2.539t3.558,2.492c5.414,3.726,11.135,7.3,16.745,10.513q3.055,1.748,6.1,3.385T58.1,138.5c4.666,2.327,9.237,4.426,13.607,6.226q2.81,1.159,5.5,2.15c2.533.935,4.979,1.758,7.31,2.452l.234.07a54.056,54.056,0,0,0,13.739,2.539h.371c4.611,0,7.734-1.35,9.286-4.02,1.937-3.3.869-7.684-3.166-13.011Z" transform="translate(0 0)" fill="#fafafa"/>
  </g>
</svg>
