<svg id="rewind-mini-fill" xmlns="http://www.w3.org/2000/svg" width="20.484" height="20.484" viewBox="0 0 20.484 20.484">
  <path id="Path_10" data-name="Path 10" d="M0,0H20.484V20.484H0Z" fill="none"/>
  <path id="Path_11" data-name="Path 11" d="M9.809,15.486a.427.427,0,0,1-.673.349l-6.088-4.3a.427.427,0,0,1,0-.7l6.088-4.3a.427.427,0,0,1,.673.349Zm.921-3.949a.427.427,0,0,1,0-.7l6.088-4.3a.427.427,0,0,1,.673.349v8.595a.427.427,0,0,1-.673.349l-6.088-4.3Z" transform="translate(-0.42 -0.947)" fill="#fafafa"/>
</svg>
